<?xml version="1.0" encoding="utf-8"?>
<!-- Generator: Adobe Illustrator 27.0.0, SVG Export Plug-In . SVG Version: 6.00 Build 0)  -->
<svg version="1.1" id="Layer_1" xmlns="http://www.w3.org/2000/svg" xmlns:xlink="http://www.w3.org/1999/xlink" x="0px" y="0px"
	 viewBox="0 0 128 128" style="enable-background:new 0 0 128 128;" xml:space="preserve">
<style type="text/css">
	.st0{fill:#A0C74A;}
	.st1{fill:#FFFFFF;}
</style>
<circle class="st0" cx="64" cy="64" r="64"/>
<path class="st1" d="M42,40.6l5.3-3.5c0,0,3.4-0.9,4.7-0.6s2.8,2,4,1.4c1.2-0.6,4.6-3,4.6-3s2.2-0.6,3.8-0.6s4.5,0.7,6.4-0.6
	s7.2-5,10.4-0.9S96.5,56,96.5,56l5.9,26.9l-34.8,23.2c0,0-4.1-8.9-11.6-11.8C48.4,91.4,28,81.8,28,81.8s-6.2-3.9-5.8-7.9
	c0.4-3.9,2.2-7,4.8-7.9s9.4-0.5,9.4-0.5L19.6,39.9c0,0-2.6-6.8,3.4-10.5s10.8-2,12.6,0.8S42,40.6,42,40.6z"/>
<path class="st0" d="M50,76.9L24.5,37.4c0,0-1.4-0.9,0-1.9c1.4-0.9,3.9-2.5,3.9-2.5s1.6-1.4,2.5,0c0.9,1.4,16.5,25.8,16.5,25.8
	l4.2-2.8l-7.1-10.5l3.8-2.4c0,0,3.6-1.9,5.3,0.9c1.7,2.8,4.4,7.1,4.4,7.1l4.7-2.8l-3.8-5.8l3.8-2.5c0,0,1.7-0.9,3,0.8
	c1.3,1.7,5.3,7.9,5.3,7.9l4.1-2.8l-4.1-6.1l3.3-2c0,0,2-1.7,3.5,0.3s10.4,15.7,10.4,15.7s3,5.5,3.6,8c0.6,2.5,3.5,16.2,3.5,16.2
	s1.4,2-1.4,4.1c-2.8,2-24.7,16.2-24.7,16.2s-2.7-4.7-11.2-8.6c-8.5-3.9-30.2-13.8-30.2-13.8s-1.5-5.7,3.7-4.9s8.2,1.1,9.9,3.6
	s3.8,5.7,3.8,5.7L50,76.9z"/>
</svg>
