<?xml version="1.0" encoding="utf-8"?>
<!-- Generator: Adobe Illustrator 27.0.0, SVG Export Plug-In . SVG Version: 6.00 Build 0)  -->
<svg version="1.1" id="Layer_1" xmlns="http://www.w3.org/2000/svg" xmlns:xlink="http://www.w3.org/1999/xlink" x="0px" y="0px"
	 viewBox="0 0 42.9 42" style="enable-background:new 0 0 42.9 42;" xml:space="preserve">
<g>
	<path d="M40,6.3H2.9C1.3,6.3,0,4.9,0,3.2l0,0C0,1.5,1.3,0,2.9,0h37.3c1.4,0,2.7,1.5,2.7,3.2l0,0C42.9,4.9,41.6,6.3,40,6.3z"/>
</g>
<g>
	<path d="M40,42H2.9C1.3,42,0,40.7,0,38.9l0,0c0-1.7,1.3-3.2,2.9-3.2h37.3c1.4,0,2.7,1.5,2.7,3.2l0,0C42.9,40.7,41.6,42,40,42z"/>
</g>
<g>
	<path d="M40,24.1H2.9C1.3,24.1,0,22.8,0,21l0,0c0-1.7,1.3-3.2,2.9-3.2h37.3c1.4,0,2.7,1.5,2.7,3.2l0,0C42.9,22.8,41.6,24.1,40,24.1
		z"/>
</g>
</svg>
