<?xml version="1.0" encoding="utf-8"?>
<!-- Generator: Adobe Illustrator 27.0.0, SVG Export Plug-In . SVG Version: 6.00 Build 0)  -->
<svg version="1.1" id="Layer_2" xmlns="http://www.w3.org/2000/svg" xmlns:xlink="http://www.w3.org/1999/xlink" x="0px" y="0px"
	 viewBox="0 0 1243.5 1017.8" style="enable-background:new 0 0 1243.5 1017.8;" xml:space="preserve">
<style type="text/css">
	.st0{fill:#C3C4C6;}
	.st1{fill:#2C2C2D;}
	.st2{fill:#FFFFFF;}
	.st3{fill:#E1E3E4;}
	.st4{fill:#613181;}
	.st5{font-family:'MyriadPro-Regular';}
	.st6{font-size:19px;}
	.st7{font-size:14px;}
	.st8{font-size:12px;}
	.st9{font-size:21.5116px;}
	.st10{fill:#FFFFFF;stroke:#000000;stroke-width:2;stroke-miterlimit:10;}
	.st11{fill:#666666;}
	.st12{fill:#FFFFFF;stroke:#000000;stroke-miterlimit:10;}
	.st13{clip-path:url(#SVGID_00000054957087676056014610000002682573295406905244_);}
	.st14{fill:none;stroke:#989898;stroke-miterlimit:10;}
	.st15{clip-path:url(#SVGID_00000134954369592356443300000012382906216016462243_);}
	.st16{clip-path:url(#SVGID_00000170961789126287045290000010215281233361981067_);}
	.st17{clip-path:url(#SVGID_00000175283417373097110950000002743826958358467771_);}
	.st18{clip-path:url(#SVGID_00000130621461937910053780000009704190011371088027_);}
	.st19{clip-path:url(#SVGID_00000085225528581216010620000015365748333627861638_);}
	.st20{fill:none;stroke:#333333;stroke-miterlimit:10;}
</style>
<path class="st0" d="M511,872.6v62.7c0,0-3.4,44.9-20.3,52.5c-16.9,7.6-50,10.2-49.1,15.2s5.9,13.6,10.2,14.4s201.6,0,201.6,0V874
	L511,872.6z"/>
<path class="st0" d="M795.6,872.6v62.7c0,0,3.4,44.9,20.3,52.5c16.9,7.6,50,10.2,49.1,15.2s-5.9,13.6-10.2,14.4s-201.6,0-201.6,0
	V874L795.6,872.6z"/>
<path class="st1" d="M1203.1,877.6H40.4C18.1,877.6,0,859.5,0,837.2V40.4C0,18.1,18.1,0,40.4,0h1162.7c22.3,0,40.4,18.1,40.4,40.4
	v796.8C1243.5,859.5,1225.4,877.6,1203.1,877.6z"/>
<rect x="50.8" y="49.8" class="st2" width="1141.8" height="659"/>
<path class="st3" d="M40.3,877.6h1162.9c22.2,0,40.3-18,40.3-40.3v-85.9H0v85.9C0,859.5,18,877.6,40.3,877.6z"/>
<circle class="st4" cx="142.4" cy="83.4" r="16.5"/>
<text transform="matrix(1 0 0 1 168.0934 81.4116)" class="st4 st5 st6">Modern funeral homes</text>
<text transform="matrix(1 0 0 1 433.554 313.5523)" class="st4 st5 st6">Helena Christiansen</text>
<text transform="matrix(1 0 0 1 432.554 331.0111)" class="st5 st7">12 februar 1972 - 9 november 2022</text>
<text transform="matrix(1 0 0 1 1115.668 81.4116)" class="st4 st5 st6">Login</text>
<text transform="matrix(1 0 0 1 239.317 97.9525)" class="st5 st8">DIVISION OF ADSTATE</text>
<text transform="matrix(1 0 0 1 370.6016 269.1945)" class="st5 st9">Siste dødsfall</text>
<path class="st4" d="M494.5,190.8H373.7c-1.7,0-3.1-1.4-3.1-3.1v-25.1c0-1.7,1.4-3.1,3.1-3.1h120.8V190.8z"/>
<path class="st4" d="M842.9,159.4h26.9c1.7,0,3.1,1.4,3.1,3.1v25.1c0,1.7-1.4,3.1-3.1,3.1h-26.9V159.4z"/>
<rect x="494.5" y="159.4" class="st4" width="348.4" height="31.3"/>
<rect x="494.5" y="160.3" class="st2" width="348.4" height="29.5"/>
<text transform="matrix(1 0 0 1 379.4947 179.1655)" class="st2 st5 st8">Dødsfall hos byrået</text>
<polyline class="st2" points="478.9,172.3 488.5,172.3 483.7,178.2 "/>
<rect x="1099.3" y="93.4" class="st10" width="58.7" height="26"/>
<text transform="matrix(1 0 0 1 501.1651 179.1653)" class="st11 st5 st8">Søk på navn, sted, dato...</text>
<text transform="matrix(1 0 0 1 1104.3739 112.7763)" class="st4 st5 st6">NO</text>
<polygon class="st12" points="1136.5,101.6 1152.3,101.6 1144.4,111.3 "/>
<g>
	<defs>
		<circle id="SVGID_1_" cx="395.7" cy="315" r="25.1"/>
	</defs>
	<clipPath id="SVGID_00000114767056548269062330000002272844300018201521_">
		<use xlink:href="#SVGID_1_"  style="overflow:visible;"/>
	</clipPath>
	<g id="TrkDKP.tif" style="clip-path:url(#SVGID_00000114767056548269062330000002272844300018201521_);">
		
			<image style="overflow:visible;" width="1008" height="1018" id="Layer_0_00000183220190454446233180000010842443743660544929_" xlink:href="7B83957DE5E28C6B.png"  transform="matrix(4.970611e-02 0 0 4.970611e-02 370.6013 289.9387)">
		</image>
	</g>
</g>
<circle class="st4" cx="785.3" cy="315" r="17.2"/>
<circle class="st4" cx="830.1" cy="315" r="17.2"/>
<circle class="st4" cx="874.9" cy="315" r="17.2"/>
<circle class="st4" cx="919.7" cy="315" r="17.2"/>
<line class="st14" x1="370.6" y1="347.2" x2="936.9" y2="347.2"/>
<text transform="matrix(1 0 0 1 433.554 376.1639)" class="st4 st5 st6">Helena Christiansen</text>
<text transform="matrix(1 0 0 1 432.554 393.6227)" class="st5 st7">12 februar 1972 - 9 november 2022</text>
<g>
	<defs>
		<circle id="SVGID_00000108285110527209920090000014091904449122122907_" cx="395.7" cy="377.6" r="25.1"/>
	</defs>
	<clipPath id="SVGID_00000111870639120109498550000014372540516598680754_">
		<use xlink:href="#SVGID_00000108285110527209920090000014091904449122122907_"  style="overflow:visible;"/>
	</clipPath>
	
		<g id="TrkDKP.tif_00000167361974421995951820000018110538822896517250_" style="clip-path:url(#SVGID_00000111870639120109498550000014372540516598680754_);">
		
			<image style="overflow:visible;" width="1008" height="1018" id="Layer_0_00000136380720324425867190000009878013780492885677_" xlink:href="7B83957DE5E28C69.png"  transform="matrix(4.970611e-02 0 0 4.970611e-02 370.6013 352.5504)">
		</image>
	</g>
</g>
<circle class="st4" cx="785.3" cy="377.6" r="17.2"/>
<circle class="st4" cx="830.1" cy="377.6" r="17.2"/>
<circle class="st4" cx="874.9" cy="377.6" r="17.2"/>
<circle class="st4" cx="919.7" cy="377.6" r="17.2"/>
<line class="st14" x1="370.6" y1="409.8" x2="936.9" y2="409.8"/>
<text transform="matrix(1 0 0 1 433.554 437.9285)" class="st4 st5 st6">Helena Christiansen</text>
<text transform="matrix(1 0 0 1 432.554 455.3873)" class="st5 st7">12 februar 1972 - 9 november 2022</text>
<g>
	<defs>
		<circle id="SVGID_00000177473587868090329050000008344841326309473209_" cx="395.7" cy="439.4" r="25.1"/>
	</defs>
	<clipPath id="SVGID_00000120532169229179889420000009132940472874051251_">
		<use xlink:href="#SVGID_00000177473587868090329050000008344841326309473209_"  style="overflow:visible;"/>
	</clipPath>
	
		<g id="TrkDKP.tif_00000060743756272264515740000012083222107467352205_" style="clip-path:url(#SVGID_00000120532169229179889420000009132940472874051251_);">
		
			<image style="overflow:visible;" width="1008" height="1018" id="Layer_0_00000032617532716751501480000007527434599778032006_" xlink:href="7B83957DE5E28C6F.png"  transform="matrix(4.970611e-02 0 0 4.970611e-02 370.6013 414.3149)">
		</image>
	</g>
</g>
<circle class="st4" cx="785.3" cy="439.4" r="17.2"/>
<circle class="st4" cx="830.1" cy="439.4" r="17.2"/>
<circle class="st4" cx="874.9" cy="439.4" r="17.2"/>
<circle class="st4" cx="919.7" cy="439.4" r="17.2"/>
<line class="st14" x1="370.6" y1="471.5" x2="936.9" y2="471.5"/>
<text transform="matrix(1 0 0 1 433.554 501.7547)" class="st4 st5 st6">Helena Christiansen</text>
<text transform="matrix(1 0 0 1 432.554 519.2135)" class="st5 st7">12 februar 1972 - 9 november 2022</text>
<g>
	<defs>
		<circle id="SVGID_00000086671638274962831960000011684862867138871438_" cx="395.7" cy="503.2" r="25.1"/>
	</defs>
	<clipPath id="SVGID_00000090285086151772581230000002570155578317893533_">
		<use xlink:href="#SVGID_00000086671638274962831960000011684862867138871438_"  style="overflow:visible;"/>
	</clipPath>
	
		<g id="TrkDKP.tif_00000135672793336985150760000013156343126579614373_" style="clip-path:url(#SVGID_00000090285086151772581230000002570155578317893533_);">
		
			<image style="overflow:visible;" width="1008" height="1018" id="Layer_0_00000108272265115325154280000016696824568910425489_" xlink:href="7B83957DE5E28C68.png"  transform="matrix(4.970611e-02 0 0 4.970611e-02 370.6013 478.1411)">
		</image>
	</g>
</g>
<circle class="st4" cx="785.3" cy="503.2" r="17.2"/>
<circle class="st4" cx="830.1" cy="503.2" r="17.2"/>
<circle class="st4" cx="874.9" cy="503.2" r="17.2"/>
<circle class="st4" cx="919.7" cy="503.2" r="17.2"/>
<line class="st14" x1="370.6" y1="535.4" x2="936.9" y2="535.4"/>
<text transform="matrix(1 0 0 1 433.554 565.8862)" class="st4 st5 st6">Helena Christiansen</text>
<text transform="matrix(1 0 0 1 432.554 583.345)" class="st5 st7">12 februar 1972 - 9 november 2022</text>
<g>
	<defs>
		<circle id="SVGID_00000074443606184395716840000001319307740177308832_" cx="395.7" cy="567.3" r="25.1"/>
	</defs>
	<clipPath id="SVGID_00000072966968391741518950000008872501693134136971_">
		<use xlink:href="#SVGID_00000074443606184395716840000001319307740177308832_"  style="overflow:visible;"/>
	</clipPath>
	
		<g id="TrkDKP.tif_00000157284348595789933770000000716818832580051372_" style="clip-path:url(#SVGID_00000072966968391741518950000008872501693134136971_);">
		
			<image style="overflow:visible;" width="1008" height="1018" id="Layer_0_00000031891759589636084480000004275979743665586314_" xlink:href="7B83957DE5E28C66.png"  transform="matrix(4.970611e-02 0 0 4.970611e-02 370.6013 542.2725)">
		</image>
	</g>
</g>
<circle class="st4" cx="785.3" cy="567.3" r="17.2"/>
<circle class="st4" cx="830.1" cy="567.3" r="17.2"/>
<circle class="st4" cx="874.9" cy="567.3" r="17.2"/>
<circle class="st4" cx="919.7" cy="567.3" r="17.2"/>
<line class="st14" x1="370.6" y1="599.5" x2="936.9" y2="599.5"/>
<text transform="matrix(1 0 0 1 433.554 627.6508)" class="st4 st5 st6">Helena Christiansen</text>
<text transform="matrix(1 0 0 1 432.554 645.1096)" class="st5 st7">12 februar 1972 - 9 november 2022</text>
<g>
	<defs>
		<circle id="SVGID_00000090983373602300374970000007319730987506379159_" cx="395.7" cy="629.1" r="25.1"/>
	</defs>
	<clipPath id="SVGID_00000044160071347665556790000007484383145801659836_">
		<use xlink:href="#SVGID_00000090983373602300374970000007319730987506379159_"  style="overflow:visible;"/>
	</clipPath>
	
		<g id="TrkDKP.tif_00000143594720158616088370000007764188012661515167_" style="clip-path:url(#SVGID_00000044160071347665556790000007484383145801659836_);">
		
			<image style="overflow:visible;" width="1008" height="1018" id="Layer_0_00000067210350896227046960000007068787711786611645_" xlink:href="7B83957DE5E28C67.png"  transform="matrix(4.970611e-02 0 0 4.970611e-02 370.6013 604.0371)">
		</image>
	</g>
</g>
<circle class="st4" cx="785.3" cy="629.1" r="17.2"/>
<circle class="st4" cx="830.1" cy="629.1" r="17.2"/>
<circle class="st4" cx="874.9" cy="629.1" r="17.2"/>
<circle class="st4" cx="919.7" cy="629.1" r="17.2"/>
<line class="st14" x1="370.6" y1="661.3" x2="936.9" y2="661.3"/>
<line class="st20" x1="1006.9" y1="466.3" x2="1013.6" y2="471.4"/>
</svg>
